<?xml version="1.0" encoding="utf-8"?>
<!-- Generator: Adobe Illustrator 19.2.1, SVG Export Plug-In . SVG Version: 6.00 Build 0)  -->
<svg version="1.1" id="Layer_1" xmlns="http://www.w3.org/2000/svg" xmlns:xlink="http://www.w3.org/1999/xlink" x="0px" y="0px"
	 viewBox="0 0 320 120" style="enable-background:new 0 0 320 120;" xml:space="preserve">
<style type="text/css">
	.st0{fill:#1CEBC8;}
	.st1{fill:#FF5000;}
	.st2{fill:#73DCFF;}
	.st3{fill:#F16923;}
	.st4{fill:#FFFFFF;}
	.st5{stroke:#231F20;stroke-width:1.25;}
	.st6{fill:#231F20;stroke:#FFFFFF;stroke-width:4;stroke-miterlimit:10;}
	.st7{stroke:#FFFFFF;stroke-width:10;stroke-miterlimit:10;}
	.st8{fill:#F37820;}
	.st9{fill:#FFFFFF;stroke:#FFFFFF;stroke-width:1.25;}
</style>
<g>
	<g>
		<polygon class="st0" points="68.3,26.9 49.2,60 68.3,93.1 87.4,60 		"/>
		<polygon class="st1" points="68.3,93.1 30.2,93.1 11.1,60 49.2,60 		"/>
		<polygon class="st1" points="68.3,93.1 87.4,60 125.6,60 106.5,93.1 		"/>
	</g>
	<g>
		<g>
			<path class="st4" d="M166.8,38.5c-0.2-1.1-1.1-3.1-4.1-3.1c-2,0-3.3,1.3-3.3,2.6c0,1.2,0.7,2,2.4,2.3l3.3,0.6
				c4.7,0.9,7.1,3.9,7.1,7.3c0,3.8-3.2,7.7-9,7.7c-6.8,0-9.7-4.4-10-7.8l5-1.2c0.2,2.2,1.7,4.2,5.1,4.2c2.1,0,3.4-1,3.4-2.5
				c0-1.2-1-2.1-2.6-2.5l-3.3-0.6c-4.1-0.8-6.7-3.5-6.7-7.2c0-4.6,4.1-7.9,8.8-7.9c6.1,0,8.4,3.6,8.9,6.5L166.8,38.5z"/>
			<path class="st4" d="M174.7,55.6V38.4h5v2c0.9-1.5,3.1-2.5,4.9-2.5c2.4,0,4.2,1,5.1,2.7c1.3-1.9,3-2.7,5.3-2.7
				c3.2,0,6.3,1.9,6.3,6.6v11.1h-5.1v-9.9c0-1.6-0.9-2.9-2.7-2.9c-1.9,0-2.9,1.4-2.9,2.9v9.9h-5.2v-9.9c0-1.6-0.9-2.9-2.8-2.9
				c-1.8,0-2.8,1.4-2.8,3v9.9H174.7z"/>
			<path class="st4" d="M207.1,30.1c1.7,0,3.1,1.4,3.1,3.1c0,1.7-1.4,3.1-3.1,3.1c-1.6,0-3-1.4-3-3.1
				C204.1,31.5,205.5,30.1,207.1,30.1 M204.6,38.4h5.2v17.1h-5.2V38.4z"/>
			<rect x="213.1" y="30.6" class="st4" width="5.2" height="25"/>
			<path class="st4" d="M237.5,50.6c-0.8,3-3.6,5.4-7.9,5.4c-4.7,0-8.9-3.4-8.9-9.1c0-5.5,4.1-9,8.5-9c5.3,0,8.6,3.3,8.6,8.8
				c0,0.7-0.1,1.5-0.1,1.6h-11.9c0.1,1.9,1.9,3.3,3.9,3.3c1.9,0,3-0.9,3.4-2.2L237.5,50.6z M232.7,45c-0.1-1.3-0.9-2.9-3.4-2.9
				c-2.2,0-3.3,1.6-3.4,2.9H232.7z"/>
			<path class="st4" d="M243.9,55.2c0.3,1.6,1.7,2.8,3.7,2.8c2.6,0,4.2-1.3,4.2-4.4v-0.8c-0.6,0.9-2.1,1.9-4.6,1.9
				c-4.5,0-8-3.6-8-8.3c0-4.5,3.3-8.4,8-8.4c2.8,0,4.3,1.2,4.8,2.1v-1.8h5v15c0,4.9-2.8,9.2-9.2,9.2c-4.9,0-8.1-3-8.5-6.1
				L243.9,55.2z M251.9,46.5c0-2.3-1.7-3.8-3.7-3.8c-2,0-3.7,1.5-3.7,3.8c0,2.4,1.6,3.8,3.7,3.8C250.3,50.3,251.9,48.8,251.9,46.5"
				/>
			<path class="st4" d="M272.4,53.4c-0.7,1.6-2.5,2.7-4.6,2.7c-5,0-8.5-3.8-8.5-9.1c0-5.1,3.3-9,8.3-9c3.1,0,4.4,1.7,4.8,2.5v-2h5.1
				v14.1c0,1.6,0.1,2.7,0.1,3.1h-5c0-0.4-0.1-1.3-0.1-2V53.4z M268.5,51.5c2.1,0,3.9-1.7,3.9-4.6c0-3-1.8-4.5-3.9-4.5
				c-2.2,0-3.9,1.6-3.9,4.5C264.5,49.8,266.3,51.5,268.5,51.5"/>
			<path class="st4" d="M287.3,38.4h3.3V43h-3.3v6.4c0,1.4,0.8,1.8,1.9,1.8c0.5,0,1.1-0.1,1.4-0.2v4.4c-0.2,0.1-1.1,0.5-2.7,0.5
				c-3.5,0-5.7-2.1-5.7-5.5V43l-3,0v-4.6h0.8c1.8,0,2.7-1.2,2.7-2.8v-2.2h4.7V38.4z"/>
			<path class="st4" d="M308.6,50.6c-0.8,3-3.5,5.4-7.9,5.4c-4.7,0-8.9-3.4-8.9-9.1c0-5.5,4.1-9,8.5-9c5.3,0,8.6,3.3,8.6,8.8
				c0,0.7-0.1,1.5-0.1,1.6h-11.9c0.1,1.9,1.9,3.3,3.9,3.3c1.9,0,3-0.9,3.5-2.2L308.6,50.6z M303.9,45c-0.1-1.3-1-2.9-3.4-2.9
				c-2.2,0-3.3,1.6-3.4,2.9H303.9z"/>
		</g>
		<g>
			<path class="st4" d="M154.4,88.7V70.9h10.8v2.3h-8.4v5.5h7.6V81h-7.6v5.4h8.4v2.3H154.4z"/>
			<path class="st4" d="M170.7,88.7h-2.4V76.6h2.3v1.7c0.9-1.5,2.3-2.1,3.7-2.1c2.9,0,4.3,2.1,4.3,4.8v7.7h-2.4v-7.3
				c0-1.7-0.7-3-2.8-3c-1.9,0-2.8,1.5-2.8,3.3V88.7z"/>
			<path class="st4" d="M185.2,76.6h2.6v2.1h-2.6v6.3c0,1.1,0.5,1.7,1.7,1.7c0.3,0,0.7,0,0.9-0.1v2c-0.2,0.1-0.8,0.2-1.6,0.2
				c-2.1,0-3.4-1.3-3.4-3.4v-6.6h-2.3v-2.1h0.7c1.3,0,1.9-0.8,1.9-1.9v-2h2.2V76.6z"/>
			<path class="st4" d="M201.1,85.3c-0.7,2.1-2.6,3.8-5.4,3.8c-3.2,0-6.1-2.4-6.1-6.4c0-3.8,2.7-6.4,5.8-6.4c3.7,0,5.8,2.6,5.8,6.3
				c0,0.3,0,0.6-0.1,0.8H192c0.1,2.2,1.6,3.7,3.6,3.7c2,0,2.9-1.1,3.4-2.4L201.1,85.3z M198.7,81.4c0-1.7-1.2-3.1-3.3-3.1
				c-2,0-3.2,1.5-3.3,3.1H198.7z"/>
			<path class="st4" d="M210.5,79c-0.4,0-0.7-0.1-1-0.1c-2,0-3.3,1.1-3.3,3.7v6h-2.4V76.6h2.3v2.1c0.9-1.9,2.4-2.3,3.6-2.3
				c0.3,0,0.7,0.1,0.8,0.1V79z"/>
			<path class="st4" d="M215.8,76.6h2.6v2.1h-2.6v6.3c0,1.1,0.5,1.7,1.7,1.7c0.3,0,0.7,0,0.9-0.1v2c-0.2,0.1-0.8,0.2-1.6,0.2
				c-2.1,0-3.4-1.3-3.4-3.4v-6.6h-2.3v-2.1h0.7c1.3,0,1.9-0.8,1.9-1.9v-2h2.2V76.6z"/>
			<path class="st4" d="M224.1,81.8l3.3-0.5c0.7-0.1,0.9-0.5,0.9-0.9c0-1.2-0.8-2.2-2.6-2.2c-1.7,0-2.6,1-2.7,2.4l-2.3-0.5
				c0.3-2.3,2.3-3.9,4.9-3.9c3.6,0,5,2.1,5,4.4v6c0,1.1,0.1,1.7,0.2,2h-2.3c0-0.3-0.1-0.8-0.1-1.6c-0.5,0.9-1.7,2-3.9,2
				c-2.5,0-4-1.7-4-3.6C220.4,83.3,222,82.1,224.1,81.8z M228.3,83.5V83l-3.7,0.6c-1,0.2-1.8,0.7-1.8,1.8c0,0.9,0.8,1.8,2,1.8
				C226.7,87.1,228.3,86.2,228.3,83.5z"/>
			<path class="st4" d="M235.1,70.4c1,0,1.7,0.8,1.7,1.7c0,0.9-0.8,1.7-1.7,1.7c-0.9,0-1.7-0.8-1.7-1.7
				C233.4,71.1,234.1,70.4,235.1,70.4z M233.9,88.7V76.6h2.3v12.1H233.9z"/>
			<path class="st4" d="M242.2,88.7h-2.4V76.6h2.3v1.7c0.9-1.5,2.3-2.1,3.7-2.1c2.9,0,4.3,2.1,4.3,4.8v7.7h-2.4v-7.3
				c0-1.7-0.7-3-2.8-3c-1.9,0-2.8,1.5-2.8,3.3V88.7z"/>
			<path class="st4" d="M253.6,88.7V76.6h2.3v1.6c0.8-1.3,2.3-2,3.7-2c1.5,0,3,0.7,3.6,2.3c1-1.7,2.5-2.3,4-2.3
				c2.1,0,4.2,1.4,4.2,4.6v7.8H269v-7.6c0-1.6-0.8-2.8-2.6-2.8c-1.7,0-2.8,1.3-2.8,3v7.3h-2.4v-7.6c0-1.6-0.8-2.8-2.6-2.8
				c-1.7,0-2.8,1.3-2.8,3.1v7.3H253.6z"/>
			<path class="st4" d="M285.2,85.3c-0.7,2.1-2.6,3.8-5.4,3.8c-3.2,0-6.1-2.4-6.1-6.4c0-3.8,2.7-6.4,5.8-6.4c3.7,0,5.8,2.6,5.8,6.3
				c0,0.3,0,0.6-0.1,0.8h-9.1c0.1,2.2,1.6,3.7,3.6,3.7c2,0,2.9-1.1,3.4-2.4L285.2,85.3z M282.8,81.4c0-1.7-1.2-3.1-3.3-3.1
				c-2,0-3.2,1.5-3.3,3.1H282.8z"/>
			<path class="st4" d="M290.3,88.7h-2.4V76.6h2.3v1.7c0.9-1.5,2.3-2.1,3.7-2.1c2.9,0,4.3,2.1,4.3,4.8v7.7h-2.4v-7.3
				c0-1.7-0.7-3-2.8-3c-1.9,0-2.8,1.5-2.8,3.3V88.7z"/>
			<path class="st4" d="M304.8,76.6h2.6v2.1h-2.6v6.3c0,1.1,0.5,1.7,1.7,1.7c0.3,0,0.7,0,0.9-0.1v2c-0.2,0.1-0.8,0.2-1.6,0.2
				c-2.1,0-3.4-1.3-3.4-3.4v-6.6h-2.3v-2.1h0.7c1.3,0,1.9-0.8,1.9-1.9v-2h2.2V76.6z"/>
		</g>
	</g>
</g>
</svg>
