<?xml version="1.0" encoding="utf-8"?>
<!-- Generator: Adobe Illustrator 19.2.1, SVG Export Plug-In . SVG Version: 6.00 Build 0)  -->
<svg version="1.1" id="Layer_1" xmlns="http://www.w3.org/2000/svg" xmlns:xlink="http://www.w3.org/1999/xlink" x="0px" y="0px"
	 viewBox="0 0 320 118.3" style="enable-background:new 0 0 320 118.3;" xml:space="preserve">
<style type="text/css">
	.st0{fill:#1CEBC8;}
	.st1{fill:#FF5000;}
	.st2{fill:#73DCFF;}
	.st3{fill:#F16923;}
	.st4{fill:#FFFFFF;}
	.st5{stroke:#231F20;stroke-width:1.25;}
	.st6{fill:#231F20;stroke:#FFFFFF;stroke-width:4;stroke-miterlimit:10;}
	.st7{stroke:#FFFFFF;stroke-width:10;stroke-miterlimit:10;}
	.st8{fill:#F37820;}
	.st9{fill:#FFFFFF;stroke:#FFFFFF;stroke-width:1.25;}
</style>
<g>
	<g>
		<polygon class="st2" points="29.7,27 67.8,27 86.9,60 48.7,60 		"/>
		<polygon class="st1" points="48.7,60 86.9,60 106,93.1 67.8,93.1 		"/>
		<polygon class="st1" points="67.9,26.9 106,26.9 125.1,60 87,60 		"/>
	</g>
	<g>
		<g>
			<path class="st4" d="M166.8,38.6c-0.2-1.1-1.1-3.1-4.1-3.1c-2,0-3.3,1.3-3.3,2.6c0,1.2,0.7,2,2.4,2.3l3.3,0.6
				c4.7,0.9,7.1,3.8,7.1,7.3c0,3.8-3.2,7.7-9,7.7c-6.8,0-9.7-4.4-10-7.8l5-1.2c0.2,2.2,1.7,4.2,5.1,4.2c2.1,0,3.4-1,3.4-2.5
				c0-1.2-1-2.1-2.6-2.5l-3.3-0.6c-4.1-0.8-6.7-3.5-6.7-7.2c0-4.6,4.1-7.9,8.8-7.9c6.1,0,8.4,3.6,8.9,6.5L166.8,38.6z"/>
			<path class="st4" d="M174.7,55.7V38.6h5v2c0.9-1.5,3.1-2.5,4.9-2.5c2.4,0,4.2,1,5.1,2.7c1.3-1.9,3-2.7,5.3-2.7
				c3.2,0,6.3,1.9,6.3,6.5v11.1h-5.1v-9.9c0-1.6-0.9-2.9-2.7-2.9c-1.9,0-2.9,1.4-2.9,2.9v9.9h-5.2v-9.9c0-1.6-0.9-2.9-2.8-2.9
				c-1.8,0-2.8,1.4-2.8,3v9.9H174.7z"/>
			<path class="st4" d="M207.2,30.3c1.7,0,3.1,1.4,3.1,3.1c0,1.7-1.4,3.1-3.1,3.1c-1.6,0-3-1.4-3-3.1
				C204.1,31.7,205.5,30.3,207.2,30.3 M204.6,38.6h5.2v17.1h-5.2V38.6z"/>
			<rect x="213.1" y="30.8" class="st4" width="5.2" height="25"/>
			<path class="st4" d="M237.5,50.8c-0.8,3-3.6,5.4-7.9,5.4c-4.7,0-8.9-3.4-8.9-9.1c0-5.5,4.1-9,8.6-9c5.3,0,8.6,3.3,8.6,8.8
				c0,0.7-0.1,1.5-0.1,1.6h-11.9c0.1,1.9,1.9,3.3,3.9,3.3c1.9,0,3-0.9,3.4-2.2L237.5,50.8z M232.7,45.1c-0.1-1.3-0.9-2.9-3.4-2.9
				c-2.2,0-3.3,1.6-3.4,2.9H232.7z"/>
			<path class="st4" d="M243.9,55.4c0.3,1.6,1.7,2.9,3.7,2.9c2.6,0,4.2-1.3,4.2-4.4v-0.8c-0.6,0.9-2.1,1.9-4.6,1.9
				c-4.5,0-8-3.6-8-8.3c0-4.5,3.3-8.4,8-8.4c2.8,0,4.3,1.2,4.7,2.1v-1.8h5v15c0,4.9-2.8,9.2-9.2,9.2c-4.9,0-8.1-3-8.6-6.1
				L243.9,55.4z M251.9,46.6c0-2.3-1.7-3.8-3.7-3.8c-2,0-3.7,1.5-3.7,3.8c0,2.4,1.6,3.8,3.7,3.8C250.3,50.4,251.9,49,251.9,46.6"/>
			<path class="st4" d="M272.4,53.5c-0.7,1.6-2.5,2.7-4.6,2.7c-5,0-8.5-3.8-8.5-9.1c0-5.1,3.3-9,8.3-9c3.1,0,4.4,1.7,4.8,2.5v-2h5.1
				v14.1c0,1.6,0.1,2.7,0.1,3.1h-5c0-0.4-0.1-1.3-0.1-2V53.5z M268.5,51.7c2.1,0,3.9-1.7,3.9-4.6c0-3-1.8-4.5-3.9-4.5
				c-2.2,0-3.9,1.5-3.9,4.5C264.5,49.9,266.3,51.7,268.5,51.7"/>
			<path class="st4" d="M287.3,38.6h3.3v4.6h-3.3v6.4c0,1.4,0.8,1.8,1.9,1.8c0.5,0,1.1-0.1,1.4-0.2v4.4c-0.2,0.1-1.1,0.5-2.7,0.5
				c-3.5,0-5.7-2.1-5.7-5.5v-7.3h-3v-4.6h0.8c1.8,0,2.7-1.2,2.7-2.8v-2.2h4.7V38.6z"/>
			<path class="st4" d="M308.6,50.8c-0.8,3-3.5,5.4-7.9,5.4c-4.7,0-8.9-3.4-8.9-9.1c0-5.5,4.1-9,8.6-9c5.3,0,8.6,3.3,8.6,8.8
				c0,0.7-0.1,1.5-0.1,1.6h-11.9c0.1,1.9,1.9,3.3,3.9,3.3c1.9,0,3-0.9,3.5-2.2L308.6,50.8z M303.9,45.1c-0.1-1.3-1-2.9-3.4-2.9
				c-2.2,0-3.3,1.6-3.4,2.9H303.9z"/>
		</g>
		<g>
			<path class="st4" d="M174.4,71.1h2.5l-5.1,17.8h-2.5l-4.6-14.4l-4.6,14.4h-2.5l-5.1-17.8h2.5L159,85l4.5-13.9h2.6l4.6,14.1
				L174.4,71.1z"/>
			<path class="st4" d="M189.5,85.4c-0.7,2.1-2.6,3.8-5.4,3.8c-3.2,0-6.1-2.4-6.1-6.4c0-3.8,2.7-6.4,5.8-6.4c3.7,0,5.8,2.6,5.8,6.3
				c0,0.3,0,0.6-0.1,0.8h-9.1c0.1,2.2,1.6,3.7,3.6,3.7c2,0,2.9-1.1,3.4-2.4L189.5,85.4z M187.1,81.6c0-1.7-1.2-3.1-3.3-3.1
				c-2,0-3.2,1.5-3.3,3.1H187.1z"/>
			<path class="st4" d="M193.2,85c0.1,1.3,1.1,2.3,2.8,2.3c1.3,0,2.1-0.8,2.1-1.6c0-0.8-0.6-1.3-1.6-1.6l-2.1-0.5
				c-1.9-0.4-3-1.7-3-3.4c0-2.1,1.9-3.8,4.3-3.8c3.3,0,4.3,2.2,4.6,3.2l-2.1,0.8c-0.1-0.6-0.6-2-2.5-2c-1.2,0-2,0.8-2,1.6
				c0,0.7,0.5,1.3,1.4,1.5l2,0.4c2.2,0.5,3.3,1.8,3.3,3.6c0,1.7-1.4,3.7-4.4,3.7c-3.3,0-4.7-2.1-4.9-3.5L193.2,85z"/>
			<path class="st4" d="M206.3,76.8h2.6v2.1h-2.6v6.3c0,1.1,0.5,1.7,1.7,1.7c0.3,0,0.7-0.1,0.9-0.1v2c-0.2,0.1-0.8,0.2-1.6,0.2
				c-2.1,0-3.4-1.3-3.4-3.4v-6.6h-2.3v-2.1h0.7c1.3,0,1.9-0.8,1.9-1.9v-2h2.2V76.8z"/>
		</g>
	</g>
</g>
</svg>
